{
    "asset" : {
        "generator" : "Khronos glTF Blender I/O v1.6.16",
        "version" : "2.0"
    },
    "scene" : 0,
    "scenes" : [
        {
            "name" : "Scene",
            "nodes" : [
                0,
                1,
                8
            ]
        }
    ],
    "nodes" : [
        {
            "name" : "Light",
            "rotation" : [
                0.16907575726509094,
                0.7558803558349609,
                -0.27217137813568115,
                0.570947527885437
            ],
            "translation" : [
                4.076245307922363,
                5.903861999511719,
                -1.0054539442062378
            ]
        },
        {
            "name" : "Camera",
            "rotation" : [
                0.483536034822464,
                0.33687159419059753,
                -0.20870360732078552,
                0.7804827094078064
            ],
            "translation" : [
                7.358891487121582,
                4.958309173583984,
                6.925790786743164
            ]
        },
        {
            "mesh" : 0,
            "name" : "Brain_Part_01"
        },
        {
            "mesh" : 1,
            "name" : "Brain_Part_02"
        },
        {
            "mesh" : 2,
            "name" : "Brain_Part_03"
        },
        {
            "mesh" : 3,
            "name" : "Brain_Part_04"
        },
        {
            "mesh" : 4,
            "name" : "Brain_Part_05"
        },
        {
            "mesh" : 5,
            "name" : "Brain_Part_06"
        },
        {
            "children" : [
                2,
                3,
                4,
                5,
                6,
                7
            ],
            "name" : "Brain",
            "rotation" : [
                0.7071068286895752,
                0,
                0,
                0.7071067094802856
            ],
            "scale" : [
                0.8426976203918457,
                0.8426976203918457,
                0.8426976203918457
            ]
        }
    ],
    "materials" : [
        {
            "doubleSided" : true,
            "name" : "BRAIN_TEXTURE_blinn2",
            "pbrMetallicRoughness" : {
                "baseColorTexture" : {
                    "index" : 0
                },
                "metallicFactor" : 0.5,
                "roughnessFactor" : 0.8883876800537109
            }
        }
    ],
    "meshes" : [
        {
            "name" : "Mesh",
            "primitives" : [
                {
                    "attributes" : {
                        "POSITION" : 0,
                        "NORMAL" : 1,
                        "TEXCOORD_0" : 2
                    },
                    "indices" : 3,
                    "material" : 0
                }
            ]
        },
        {
            "name" : "Mesh.001",
            "primitives" : [
                {
                    "attributes" : {
                        "POSITION" : 4,
                        "NORMAL" : 5,
                        "TEXCOORD_0" : 6
                    },
                    "indices" : 7,
                    "material" : 0
                }
            ]
        },
        {
            "name" : "Mesh.002",
            "primitives" : [
                {
                    "attributes" : {
                        "POSITION" : 8,
                        "NORMAL" : 9,
                        "TEXCOORD_0" : 10,
                        "TEXCOORD_1" : 11
                    },
                    "indices" : 12,
                    "material" : 0
                }
            ]
        },
        {
            "name" : "Mesh.003",
            "primitives" : [
                {
                    "attributes" : {
                        "POSITION" : 13,
                        "NORMAL" : 14,
                        "TEXCOORD_0" : 15,
                        "TEXCOORD_1" : 16
                    },
                    "indices" : 17,
                    "material" : 0
                }
            ]
        },
        {
            "name" : "Mesh.004",
            "primitives" : [
                {
                    "attributes" : {
                        "POSITION" : 18,
                        "NORMAL" : 19,
                        "TEXCOORD_0" : 20
                    },
                    "indices" : 21,
                    "material" : 0
                }
            ]
        },
        {
            "name" : "Mesh.005",
            "primitives" : [
                {
                    "attributes" : {
                        "POSITION" : 22,
                        "NORMAL" : 23,
                        "TEXCOORD_0" : 24,
                        "TEXCOORD_1" : 25
                    },
                    "indices" : 26,
                    "material" : 0
                }
            ]
        }
    ],
    "textures" : [
        {
            "sampler" : 0,
            "source" : 0
        }
    ],
    "images" : [
        {
            "bufferView" : 4,
            "mimeType" : "image/jpeg",
            "name" : "brain_tex"
        }
    ],
    "accessors" : [
        {
            "bufferView" : 0,
            "componentType" : 5126,
            "count" : 139,
            "max" : [
                0.06697463989257812,
                0.19186723232269287,
                -0.32030296325683594
            ],
            "min" : [
                -0.09192657470703125,
                0.09103137254714966,
                -0.4097471237182617
            ],
            "type" : "VEC3"
        },
        {
            "bufferView" : 1,
            "componentType" : 5126,
            "count" : 139,
            "type" : "VEC3"
        },
        {
            "bufferView" : 2,
            "componentType" : 5126,
            "count" : 139,
            "type" : "VEC2"
        },
        {
            "bufferView" : 3,
            "componentType" : 5123,
            "count" : 702,
            "type" : "SCALAR"
        },
        {
            "bufferView" : 5,
            "componentType" : 5126,
            "count" : 6905,
            "max" : [
                0.4107666015625,
                -0.03578758239746094,
                -0.143585205078125
            ],
            "min" : [
                -0.4500274658203125,
                -0.5016469955444336,
                -0.51873779296875
            ],
            "type" : "VEC3"
        },
        {
            "bufferView" : 6,
            "componentType" : 5126,
            "count" : 6905,
            "type" : "VEC3"
        },
        {
            "bufferView" : 7,
            "componentType" : 5126,
            "count" : 6905,
            "type" : "VEC2"
        },
        {
            "bufferView" : 8,
            "componentType" : 5123,
            "count" : 40734,
            "type" : "SCALAR"
        },
        {
            "bufferView" : 9,
            "componentType" : 5126,
            "count" : 902,
            "max" : [
                0.024658203125,
                0.1965341567993164,
                -0.596923828125
            ],
            "min" : [
                -0.056884765625,
                -0.1811351776123047,
                -0.8369903564453125
            ],
            "type" : "VEC3"
        },
        {
            "bufferView" : 10,
            "componentType" : 5126,
            "count" : 902,
            "type" : "VEC3"
        },
        {
            "bufferView" : 11,
            "componentType" : 5126,
            "count" : 902,
            "type" : "VEC2"
        },
        {
            "bufferView" : 12,
            "componentType" : 5126,
            "count" : 902,
            "type" : "VEC2"
        },
        {
            "bufferView" : 13,
            "componentType" : 5123,
            "count" : 3660,
            "type" : "SCALAR"
        },
        {
            "bufferView" : 14,
            "componentType" : 5126,
            "count" : 19991,
            "max" : [
                0.52923583984375,
                0.6581108570098877,
                -0.2871856689453125
            ],
            "min" : [
                -0.00640869140625,
                -0.658111572265625,
                -1.124481201171875
            ],
            "type" : "VEC3"
        },
        {
            "bufferView" : 15,
            "componentType" : 5126,
            "count" : 19991,
            "type" : "VEC3"
        },
        {
            "bufferView" : 16,
            "componentType" : 5126,
            "count" : 19991,
            "type" : "VEC2"
        },
        {
            "bufferView" : 17,
            "componentType" : 5126,
            "count" : 19991,
            "type" : "VEC2"
        },
        {
            "bufferView" : 18,
            "componentType" : 5123,
            "count" : 114666,
            "type" : "SCALAR"
        },
        {
            "bufferView" : 19,
            "componentType" : 5126,
            "count" : 1664,
            "max" : [
                0.32391357421875,
                0.31484556198120117,
                -0.0005950927734375
            ],
            "min" : [
                -0.3488616943359375,
                -0.2395181655883789,
                -0.8172454833984375
            ],
            "type" : "VEC3"
        },
        {
            "bufferView" : 20,
            "componentType" : 5126,
            "count" : 1664,
            "type" : "VEC3"
        },
        {
            "bufferView" : 21,
            "componentType" : 5126,
            "count" : 1664,
            "type" : "VEC2"
        },
        {
            "bufferView" : 22,
            "componentType" : 5123,
            "count" : 9714,
            "type" : "SCALAR"
        },
        {
            "bufferView" : 23,
            "componentType" : 5126,
            "count" : 19991,
            "max" : [
                0.00640869140625,
                0.6581108570098877,
                -0.2871856689453125
            ],
            "min" : [
                -0.52923583984375,
                -0.658111572265625,
                -1.124481201171875
            ],
            "type" : "VEC3"
        },
        {
            "bufferView" : 24,
            "componentType" : 5126,
            "count" : 19991,
            "type" : "VEC3"
        },
        {
            "bufferView" : 25,
            "componentType" : 5126,
            "count" : 19991,
            "type" : "VEC2"
        },
        {
            "bufferView" : 26,
            "componentType" : 5126,
            "count" : 19991,
            "type" : "VEC2"
        },
        {
            "bufferView" : 27,
            "componentType" : 5123,
            "count" : 114666,
            "type" : "SCALAR"
        }
    ],
    "bufferViews" : [
        {
            "buffer" : 0,
            "byteLength" : 1668,
            "byteOffset" : 0
        },
        {
            "buffer" : 0,
            "byteLength" : 1668,
            "byteOffset" : 1668
        },
        {
            "buffer" : 0,
            "byteLength" : 1112,
            "byteOffset" : 3336
        },
        {
            "buffer" : 0,
            "byteLength" : 1404,
            "byteOffset" : 4448
        },
        {
            "buffer" : 0,
            "byteLength" : 178375,
            "byteOffset" : 5852
        },
        {
            "buffer" : 0,
            "byteLength" : 82860,
            "byteOffset" : 184228
        },
        {
            "buffer" : 0,
            "byteLength" : 82860,
            "byteOffset" : 267088
        },
        {
            "buffer" : 0,
            "byteLength" : 55240,
            "byteOffset" : 349948
        },
        {
            "buffer" : 0,
            "byteLength" : 81468,
            "byteOffset" : 405188
        },
        {
            "buffer" : 0,
            "byteLength" : 10824,
            "byteOffset" : 486656
        },
        {
            "buffer" : 0,
            "byteLength" : 10824,
            "byteOffset" : 497480
        },
        {
            "buffer" : 0,
            "byteLength" : 7216,
            "byteOffset" : 508304
        },
        {
            "buffer" : 0,
            "byteLength" : 7216,
            "byteOffset" : 515520
        },
        {
            "buffer" : 0,
            "byteLength" : 7320,
            "byteOffset" : 522736
        },
        {
            "buffer" : 0,
            "byteLength" : 239892,
            "byteOffset" : 530056
        },
        {
            "buffer" : 0,
            "byteLength" : 239892,
            "byteOffset" : 769948
        },
        {
            "buffer" : 0,
            "byteLength" : 159928,
            "byteOffset" : 1009840
        },
        {
            "buffer" : 0,
            "byteLength" : 159928,
            "byteOffset" : 1169768
        },
        {
            "buffer" : 0,
            "byteLength" : 229332,
            "byteOffset" : 1329696
        },
        {
            "buffer" : 0,
            "byteLength" : 19968,
            "byteOffset" : 1559028
        },
        {
            "buffer" : 0,
            "byteLength" : 19968,
            "byteOffset" : 1578996
        },
        {
            "buffer" : 0,
            "byteLength" : 13312,
            "byteOffset" : 1598964
        },
        {
            "buffer" : 0,
            "byteLength" : 19428,
            "byteOffset" : 1612276
        },
        {
            "buffer" : 0,
            "byteLength" : 239892,
            "byteOffset" : 1631704
        },
        {
            "buffer" : 0,
            "byteLength" : 239892,
            "byteOffset" : 1871596
        },
        {
            "buffer" : 0,
            "byteLength" : 159928,
            "byteOffset" : 2111488
        },
        {
            "buffer" : 0,
            "byteLength" : 159928,
            "byteOffset" : 2271416
        },
        {
            "buffer" : 0,
            "byteLength" : 229332,
            "byteOffset" : 2431344
        }
    ],
    "samplers" : [
        {
            "magFilter" : 9729,
            "minFilter" : 9987
        }
    ],
    "buffers" : [
        {
            "byteLength" : 2660676,
            "uri" : "data:application/octet-stream;base64,"
        }
    ]
}
